HIERARCHY
ROOT mixamorig:Hips
{
	OFFSET 0.000000 104.274902 0.000000
	CHANNELS 6 Xposition Yposition Zposition Xrotation Yrotation Zrotation
	JOINT mixamorig:Spine
	{
		OFFSET 0.000000 10.181549 0.131524
		CHANNELS 6 Xposition Yposition Zposition Xrotation Yrotation Zrotation
		JOINT mixamorig:Spine1
		{
			OFFSET 0.000000 9.893990 -1.470706
			CHANNELS 3 Xrotation Yrotation Zrotation
			JOINT mixamorig:Spine2
			{
				OFFSET 0.000000 9.220787 -1.370637
				CHANNELS 3 Xrotation Yrotation Zrotation
				JOINT mixamorig:Neck
				{
					OFFSET 0.000000 16.740372 -2.049022
					CHANNELS 6 Xposition Yposition Zposition Xrotation Yrotation Zrotation
					JOINT mixamorig:Head
					{
						OFFSET 0.000000 9.617859 1.684976
						CHANNELS 6 Xposition Yposition Zposition Xrotation Yrotation Zrotation
						JOINT mixamorig:HeadTop_End
						{
							OFFSET 0.000000 22.037384 7.501072
							CHANNELS 6 Xposition Yposition Zposition Xrotation Yrotation Zrotation
							End Site
							{
								OFFSET 0.000000 23.106567 -2.828246
							}
						}
					}
				}
				JOINT mixamorig:RightShoulder
				{
					OFFSET -4.570000 11.014877 -2.160840
					CHANNELS 6 Xposition Yposition Zposition Xrotation Yrotation Zrotation
					JOINT mixamorig:RightArm
					{
						OFFSET -10.592867 -0.524796 -2.232105
						CHANNELS 3 Xrotation Yrotation Zrotation
						JOINT mixamorig:RightForeArm
						{
							OFFSET -27.841497 0.000000 -0.000002
							CHANNELS 3 Xrotation Yrotation Zrotation
							JOINT mixamorig:RightHand
							{
								OFFSET -28.328812 0.000000 -0.000001
								CHANNELS 3 Xrotation Yrotation Zrotation
								JOINT mixamorig:RightHandThumb1
								{
									OFFSET -2.464798 -1.573990 2.681911
									CHANNELS 6 Xposition Yposition Zposition Xrotation Yrotation Zrotation
									JOINT mixamorig:RightHandThumb2
									{
										OFFSET -3.244781 -1.873383 1.873376
										CHANNELS 3 Xrotation Yrotation Zrotation
										JOINT mixamorig:RightHandThumb3
										{
											OFFSET -2.646263 -1.527817 1.527818
											CHANNELS 6 Xposition Yposition Zposition Xrotation Yrotation Zrotation
											JOINT mixamorig:RightHandThumb4
											{
												OFFSET -1.994591 -1.151581 1.151575
												CHANNELS 6 Xposition Yposition Zposition Xrotation Yrotation Zrotation
												End Site
												{
													OFFSET -1.860176 -1.142715 1.365483
												}
											}
										}
									}
								}
								JOINT mixamorig:RightHandIndex1
								{
									OFFSET -9.108299 -0.517883 2.259803
									CHANNELS 6 Xposition Yposition Zposition Xrotation Yrotation Zrotation
									JOINT mixamorig:RightHandIndex2
									{
										OFFSET -3.699997 0.000000 0.000000
										CHANNELS 3 Xrotation Yrotation Zrotation
										JOINT mixamorig:RightHandIndex3
										{
											OFFSET -2.850006 0.000000 0.000000
											CHANNELS 3 Xrotation Yrotation Zrotation
											JOINT mixamorig:RightHandIndex4
											{
												OFFSET -2.772194 0.000000 0.000000
												CHANNELS 3 Xrotation Yrotation Zrotation
												End Site
												{
													OFFSET -2.772202 0.000000 -0.000484
												}
											}
										}
									}
								}
								JOINT mixamorig:RightHandMiddle1
								{
									OFFSET -9.532501 0.000000 -0.000000
									CHANNELS 6 Xposition Yposition Zposition Xrotation Yrotation Zrotation
									JOINT mixamorig:RightHandMiddle2
									{
										OFFSET -3.699997 0.000000 0.000000
										CHANNELS 3 Xrotation Yrotation Zrotation
										JOINT mixamorig:RightHandMiddle3
										{
											OFFSET -2.949997 0.000000 0.000000
											CHANNELS 3 Xrotation Yrotation Zrotation
											JOINT mixamorig:RightHandMiddle4
											{
												OFFSET -2.946594 0.000000 0.000000
												CHANNELS 3 Xrotation Yrotation Zrotation
												End Site
												{
													OFFSET -2.946602 0.000000 -0.000982
												}
											}
										}
									}
								}
								JOINT mixamorig:RightHandRing1
								{
									OFFSET -9.103600 -0.043106 -1.865100
									CHANNELS 6 Xposition Yposition Zposition Xrotation Yrotation Zrotation
									JOINT mixamorig:RightHandRing2
									{
										OFFSET -3.379303 0.000000 0.000000
										CHANNELS 3 Xrotation Yrotation Zrotation
										JOINT mixamorig:RightHandRing3
										{
											OFFSET -2.889694 0.000000 0.000000
											CHANNELS 3 Xrotation Yrotation Zrotation
											JOINT mixamorig:RightHandRing4
											{
												OFFSET -2.638802 0.000000 0.000000
												CHANNELS 3 Xrotation Yrotation Zrotation
												End Site
												{
													OFFSET -2.638802 0.000000 0.004218
												}
											}
										}
									}
								}
								JOINT mixamorig:RightHandPinky1
								{
									OFFSET -8.076698 -0.486725 -3.806299
									CHANNELS 6 Xposition Yposition Zposition Xrotation Yrotation Zrotation
									JOINT mixamorig:RightHandPinky2
									{
										OFFSET -3.600006 0.000000 0.000000
										CHANNELS 3 Xrotation Yrotation Zrotation
										JOINT mixamorig:RightHandPinky3
										{
											OFFSET -2.099998 0.000000 0.000000
											CHANNELS 3 Xrotation Yrotation Zrotation
											JOINT mixamorig:RightHandPinky4
											{
												OFFSET -2.115791 0.000000 0.000000
												CHANNELS 3 Xrotation Yrotation Zrotation
												End Site
												{
													OFFSET -2.115799 0.000000 0.000174
												}
											}
										}
									}
								}
							}
						}
					}
				}
				JOINT mixamorig:LeftShoulder
				{
					OFFSET 4.570400 11.014679 -2.160816
					CHANNELS 6 Xposition Yposition Zposition Xrotation Yrotation Zrotation
					JOINT mixamorig:LeftArm
					{
						OFFSET 10.592373 -0.524597 -2.232116
						CHANNELS 3 Xrotation Yrotation Zrotation
						JOINT mixamorig:LeftForeArm
						{
							OFFSET 27.841488 0.000000 0.000001
							CHANNELS 3 Xrotation Yrotation Zrotation
							JOINT mixamorig:LeftHand
							{
								OFFSET 28.328808 0.000000 -0.000000
								CHANNELS 3 Xrotation Yrotation Zrotation
								JOINT mixamorig:LeftHandThumb1
								{
									OFFSET 2.466103 -1.576202 2.681698
									CHANNELS 6 Xposition Yposition Zposition Xrotation Yrotation Zrotation
									JOINT mixamorig:LeftHandThumb2
									{
										OFFSET 3.243317 -1.872528 1.872530
										CHANNELS 3 Xrotation Yrotation Zrotation
										JOINT mixamorig:LeftHandThumb3
										{
											OFFSET 2.647881 -1.528763 1.528754
											CHANNELS 6 Xposition Yposition Zposition Xrotation Yrotation Zrotation
											JOINT mixamorig:LeftHandThumb4
											{
												OFFSET 1.998924 -1.154083 1.154080
												CHANNELS 6 Xposition Yposition Zposition Xrotation Yrotation Zrotation
												End Site
												{
													OFFSET 1.884041 -1.149155 1.337651
												}
											}
										}
									}
								}
								JOINT mixamorig:LeftHandIndex1
								{
									OFFSET 9.109299 -0.518005 2.259900
									CHANNELS 6 Xposition Yposition Zposition Xrotation Yrotation Zrotation
									JOINT mixamorig:LeftHandIndex2
									{
										OFFSET 3.699997 0.000000 0.000000
										CHANNELS 3 Xrotation Yrotation Zrotation
										JOINT mixamorig:LeftHandIndex3
										{
											OFFSET 2.850006 0.000000 0.000000
											CHANNELS 3 Xrotation Yrotation Zrotation
											JOINT mixamorig:LeftHandIndex4
											{
												OFFSET 2.774895 0.000000 0.000000
												CHANNELS 3 Xrotation Yrotation Zrotation
												End Site
												{
													OFFSET 2.774902 0.000000 -0.000072
												}
											}
										}
									}
								}
								JOINT mixamorig:LeftHandMiddle1
								{
									OFFSET 9.533401 0.000000 0.000000
									CHANNELS 6 Xposition Yposition Zposition Xrotation Yrotation Zrotation
									JOINT mixamorig:LeftHandMiddle2
									{
										OFFSET 3.699997 0.000000 0.000000
										CHANNELS 3 Xrotation Yrotation Zrotation
										JOINT mixamorig:LeftHandMiddle3
										{
											OFFSET 2.949997 0.000000 0.000000
											CHANNELS 3 Xrotation Yrotation Zrotation
											JOINT mixamorig:LeftHandMiddle4
											{
												OFFSET 2.952896 0.000000 0.000000
												CHANNELS 3 Xrotation Yrotation Zrotation
												End Site
												{
													OFFSET 2.952904 0.000000 0.000165
												}
											}
										}
									}
								}
								JOINT mixamorig:LeftHandRing1
								{
									OFFSET 9.104500 -0.042999 -1.865101
									CHANNELS 6 Xposition Yposition Zposition Xrotation Yrotation Zrotation
									JOINT mixamorig:LeftHandRing2
									{
										OFFSET 3.149994 0.000000 0.000000
										CHANNELS 3 Xrotation Yrotation Zrotation
										JOINT mixamorig:LeftHandRing3
										{
											OFFSET 2.950005 0.000000 0.000000
											CHANNELS 3 Xrotation Yrotation Zrotation
											JOINT mixamorig:LeftHandRing4
											{
												OFFSET 2.644302 0.000000 0.000000
												CHANNELS 3 Xrotation Yrotation Zrotation
												End Site
												{
													OFFSET 2.644302 0.000000 0.000083
												}
											}
										}
									}
								}
								JOINT mixamorig:LeftHandPinky1
								{
									OFFSET 8.077805 -0.486893 -3.806302
									CHANNELS 6 Xposition Yposition Zposition Xrotation Yrotation Zrotation
									JOINT mixamorig:LeftHandPinky2
									{
										OFFSET 3.600006 0.000000 0.000000
										CHANNELS 3 Xrotation Yrotation Zrotation
										JOINT mixamorig:LeftHandPinky3
										{
											OFFSET 2.099998 0.000000 0.000000
											CHANNELS 3 Xrotation Yrotation Zrotation
											JOINT mixamorig:LeftHandPinky4
											{
												OFFSET 2.125496 0.000000 0.000000
												CHANNELS 3 Xrotation Yrotation Zrotation
												End Site
												{
													OFFSET 2.125504 0.000000 -0.001254
												}
											}
										}
									}
								}
							}
						}
					}
				}
			}
		}
	}
	JOINT mixamorig:RightUpLeg
	{
		OFFSET -8.207800 -6.751701 -1.599544
		CHANNELS 6 Xposition Yposition Zposition Xrotation Yrotation Zrotation
		JOINT mixamorig:RightLeg
		{
			OFFSET 0.000004 -44.370152 0.345934
			CHANNELS 3 Xrotation Yrotation Zrotation
			JOINT mixamorig:RightFoot
			{
				OFFSET 0.000004 -44.423664 -3.043535
				CHANNELS 3 Xrotation Yrotation Zrotation
				JOINT mixamorig:RightToeBase
				{
					OFFSET 0.000001 -8.728691 10.710592
					CHANNELS 3 Xrotation Yrotation Zrotation
					JOINT mixamorig:RightToe_End
					{
						OFFSET 0.000000 -0.000665 9.278101
						CHANNELS 3 Xrotation Yrotation Zrotation
						End Site
						{
							OFFSET 0.000000 -0.000665 9.278103
						}
					}
				}
			}
		}
	}
	JOINT mixamorig:LeftUpLeg
	{
		OFFSET 8.207800 -6.751701 -1.599544
		CHANNELS 6 Xposition Yposition Zposition Xrotation Yrotation Zrotation
		JOINT mixamorig:LeftLeg
		{
			OFFSET 0.000004 -44.370037 0.346940
			CHANNELS 3 Xrotation Yrotation Zrotation
			JOINT mixamorig:LeftFoot
			{
				OFFSET 0.000004 -44.423611 -3.044388
				CHANNELS 3 Xrotation Yrotation Zrotation
				JOINT mixamorig:LeftToeBase
				{
					OFFSET 0.000001 -8.728690 10.710592
					CHANNELS 3 Xrotation Yrotation Zrotation
					JOINT mixamorig:LeftToe_End
					{
						OFFSET 0.000000 -0.000680 9.278101
						CHANNELS 3 Xrotation Yrotation Zrotation
						End Site
						{
							OFFSET 0.000000 -0.000680 9.278101
						}
					}
				}
			}
		}
	}
}
MOTION
Frames: 4
Frame Time: 0.033333
0.253823 103.247360 3.306512 -0.100033 -4.314893 0.227620 -0.000000 10.181561 0.131525 0.549686 -0.190092 -0.007290 -1.395045 -0.074629 -0.146548 -1.395243 -0.075861 -0.144394 -0.000000 16.740353 -2.049021 2.014063 4.902926 1.511404 -0.000001 9.617842 1.684976 9.040975 -3.863278 -2.878426 0.000001 22.037369 7.501072 -0.000000 -0.000000 -0.000000 -4.569996 11.014880 -2.160840 2.083484 -0.397940 23.540397 28.702214 -3.339639 48.526336 -0.000319 81.250571 0.000346 22.768246 -27.121363 31.761558 -2.464807 -1.573984 2.681904 0.608505 -22.198060 -15.090219 10.197875 -22.477789 -2.560769 -2.646253 -1.527835 1.527815 4.489824 -16.881043 -5.905187 -1.994590 -1.151586 1.151582 0.000003 -0.000003 -0.000000 -9.108294 -0.517869 2.259799 0.082114 -1.067502 8.795036 0.613222 -2.859889 24.199948 0.111175 -1.240903 10.238396 0.000000 -0.000000 0.000002 -9.532503 0.000003 -0.000003 0.151345 -1.445679 11.951585 0.432221 -2.417598 20.270016 0.229266 -1.774197 14.724665 -0.000001 -0.000001 -0.000002 -9.103596 -0.043102 -1.865106 0.392249 -2.306521 19.299594 0.427012 -2.403448 20.145880 0.187956 -1.608950 13.325813 -0.000001 -0.000002 0.000000 -8.076693 -0.486710 -3.806303 0.642414 -2.923905 24.778483 0.175871 -1.556966 12.887492 0.656344 -2.953870 25.050373 0.000001 -0.000005 -0.000001 4.570396 11.014695 -2.160815 0.694609 5.464743 -12.886632 9.141036 -19.736043 -66.585554 0.000006 -15.128473 -0.000008 -14.211365 14.831527 3.026377 2.466115 -1.576185 2.681698 -2.743544 26.716715 11.937622 8.156087 18.772818 2.776155 2.647877 -1.528746 1.528749 0.518746 14.340079 3.723434 1.998928 -1.154087 1.154083 -0.000000 -0.000006 -0.000002 9.109304 -0.518006 2.259899 0.029515 0.638264 -5.296603 0.059578 0.905829 -7.528212 0.060321 0.911364 -7.574430 -0.000000 -0.000000 -0.000000 9.533407 0.000005 -0.000001 0.127366 1.320995 -11.015764 0.142101 1.394582 -11.637993 0.104463 1.197326 -9.973052 0.000000 -0.000000 -0.000001 9.104506 -0.042996 -1.865101 0.363735 2.214485 -17.900498 0.220911 1.733624 -14.524688 0.040080 0.743466 -6.172811 -0.000000 -0.000000 0.000004 8.077806 -0.486890 -3.806304 2.206035 6.369153 -24.080331 0.299814 -2.043001 -17.429606 0.076328 1.024588 -8.522299 0.000001 -0.000000 0.000001 -8.207798 -6.751701 -1.599544 -1.789622 -7.439892 -0.151369 10.898908 2.581470 -1.095560 -9.031475 -0.047574 0.349636 -0.233650 0.000006 0.000000 0.000000 -0.000001 0.000000 8.207800 -6.751705 -1.599544 0.350120 6.597531 1.121533 8.530708 0.097302 -0.543750 -8.746919 0.105337 -0.861263 -0.848107 -0.000001 -0.000000 -0.000000 0.000000 0.000000 
0.246834 103.246964 3.274519 -0.149226 -4.452172 0.237132 0.000000 10.181547 0.131524 0.539161 -0.182331 -0.000434 -1.384882 -0.071648 -0.151393 -1.385086 -0.072673 -0.149341 0.000000 16.740379 -2.049018 2.111086 4.960842 1.359602 -0.000001 9.617853 1.684972 9.381569 -3.748199 -3.050878 -0.000001 22.037384 7.501070 -0.000001 -0.000000 0.000000 -4.570003 11.014862 -2.160837 2.100636 -0.240078 23.831374 28.243022 -2.400388 49.400054 -0.000104 72.174752 0.000139 19.715256 -28.142154 31.593067 -2.464792 -1.573984 2.681907 0.608483 -22.198052 -15.090241 10.197869 -22.477779 -2.560766 -2.646264 -1.527825 1.527813 4.489817 -16.881060 -5.905186 -1.994590 -1.151577 1.151580 0.000004 0.000003 -0.000000 -9.108299 -0.517874 2.259802 0.082104 -1.067509 8.795029 0.613231 -2.859892 24.199941 0.111169 -1.240906 10.238397 -0.000002 0.000002 0.000001 -9.532508 0.000000 -0.000003 0.151343 -1.445657 11.951612 0.432225 -2.417614 20.269992 0.229259 -1.774204 14.724667 0.000000 0.000002 0.000002 -9.103593 -0.043105 -1.865102 0.392229 -2.306513 19.299599 0.427010 -2.403441 20.145880 0.187967 -1.608959 13.325812 -0.000001 -0.000003 -0.000003 -8.076709 -0.486691 -3.806300 0.642417 -2.923899 24.778483 0.175854 -1.556983 12.887483 0.656371 -2.953873 25.050393 0.000001 -0.000002 -0.000002 4.570401 11.014689 -2.160813 0.720584 5.395718 -12.998175 9.228911 -19.721710 -66.467638 0.000006 -15.298872 -0.000000 -14.191838 14.873849 2.892260 2.466096 -1.576192 2.681699 -2.735840 26.759115 11.947384 8.203053 18.896415 2.795003 2.647889 -1.528755 1.528751 0.533305 14.528610 3.739463 1.998926 -1.154081 1.154081 0.000002 0.000005 -0.000004 9.109282 -0.518017 2.259900 0.030408 0.647784 -5.375751 0.059284 0.903483 -7.508620 0.062035 0.924266 -7.682322 -0.000001 0.000000 0.000000 9.533381 0.000003 -0.000000 0.128293 1.325725 -11.055673 0.142100 1.394582 -11.637997 0.104462 1.197327 -9.973055 0.000000 0.000000 0.000000 9.104497 -0.043003 -1.865101 0.354194 2.185151 -17.849263 0.220908 1.733598 -14.524474 0.040080 0.743465 -6.172809 0.000000 -0.000000 -0.000000 8.077788 -0.486887 -3.806303 2.184451 6.333229 -24.009032 0.299439 -2.044136 -17.419689 0.074778 1.014176 -8.435041 -0.000000 0.000000 -0.000004 -8.207799 -6.751712 -1.599544 -1.810126 -7.441920 -0.175286 10.977318 2.721226 -1.095783 -9.040947 -0.045213 0.328735 -0.200693 -0.000009 0.000001 -0.000000 0.000000 0.000000 8.207799 -6.751702 -1.599544 0.400755 6.615859 1.106667 8.531850 0.213185 -0.553781 -8.745133 0.105933 -0.867842 -0.856395 -0.000001 0.000000 -0.000000 0.000000 0.000000 
0.240585 103.243095 3.258337 -0.210718 -4.559182 0.225097 0.000000 10.181546 0.131524 0.522874 -0.185252 0.018944 -1.378870 -0.072865 -0.153992 -1.379097 -0.073468 -0.151922 0.000000 16.740366 -2.049022 2.173643 5.013000 1.272144 -0.000000 9.617849 1.684977 9.816736 -3.609774 -3.212116 0.000001 22.037354 7.501076 -0.000000 -0.000000 -0.000000 -4.569997 11.014875 -2.160841 2.099606 -0.160988 23.924618 27.764024 -0.995046 50.349194 -0.000071 63.903701 0.000122 10.010981 -24.887488 26.500584 -2.464792 -1.573993 2.681910 0.608508 -22.198052 -15.090195 10.197851 -22.477789 -2.560781 -2.646272 -1.527822 1.527813 4.489823 -16.881045 -5.905184 -1.994582 -1.151584 1.151574 0.000001 0.000000 -0.000004 -9.108285 -0.517879 2.259805 0.082088 -1.067497 8.795041 0.613234 -2.859904 24.199941 0.111179 -1.240915 10.238393 -0.000000 0.000001 0.000005 -9.532486 0.000003 0.000002 0.151335 -1.445666 11.951605 0.432232 -2.417610 20.270014 0.229254 -1.774199 14.724648 0.000002 -0.000000 0.000002 -9.103588 -0.043106 -1.865100 0.392235 -2.306517 19.299604 0.427001 -2.403443 20.145892 0.187971 -1.608959 13.325819 -0.000000 0.000001 0.000001 -8.076684 -0.486698 -3.806295 0.642419 -2.923908 24.778483 0.175859 -1.556972 12.887465 0.656359 -2.953870 25.050395 -0.000001 -0.000001 -0.000001 4.570404 11.014684 -2.160816 0.743130 5.335541 -13.094958 9.371033 -19.698703 -66.343478 -0.000016 -15.496005 0.000006 -14.197189 14.922217 2.762631 2.466095 -1.576200 2.681701 -2.729251 26.795462 11.955708 8.243284 19.002391 2.811126 2.647886 -1.528767 1.528754 0.545764 14.690180 3.753177 1.998928 -1.154081 1.154084 0.000002 0.000002 0.000001 9.109275 -0.518016 2.259899 0.031178 0.655928 -5.443614 0.059005 0.901481 -7.491833 0.063548 0.935321 -7.774804 0.000001 -0.000000 0.000000 9.533387 0.000004 -0.000001 0.129070 1.329771 -11.089882 0.142100 1.394582 -11.637996 0.104462 1.197326 -9.973055 -0.000000 0.000000 0.000001 9.104499 -0.042999 -1.865101 0.346032 2.159990 -17.805373 0.220910 1.733575 -14.524245 0.040081 0.743466 -6.172807 0.000001 0.000001 0.000001 8.077785 -0.486901 -3.806302 2.166002 6.302403 -23.947929 0.299129 -2.045115 -17.411235 0.073464 1.005246 -8.360215 0.000000 0.000000 -0.000001 -8.207799 -6.751709 -1.599544 -1.796469 -7.428614 -0.178548 11.044984 2.813725 -1.086416 -9.059352 -0.043070 0.308305 -0.174707 -0.000001 -0.000000 -0.000000 0.000001 0.000000 8.207800 -6.751702 -1.599544 0.439612 6.638229 1.110271 8.593372 0.296600 -0.545697 -8.782996 0.108293 -0.883054 -0.857246 0.000001 -0.000000 -0.000000 0.000000 0.000000 
0.235857 103.242393 3.250143 -0.275509 -4.637292 0.201117 0.000000 10.181542 0.131522 0.501478 -0.191946 0.033676 -1.374963 -0.075702 -0.147968 -1.375191 -0.075888 -0.145838 0.000001 16.740396 -2.049019 2.220821 5.044304 1.228922 -0.000000 9.617864 1.684970 10.267935 -3.507266 -3.276556 -0.000000 22.037369 7.501073 0.000000 -0.000000 -0.000000 -4.570001 11.014908 -2.160838 2.090150 -0.174983 23.854029 27.170593 0.843418 51.363747 -0.000041 56.080959 0.000076 -1.899951 -18.200757 17.985871 -2.464791 -1.573987 2.681909 0.608490 -22.198057 -15.090234 10.197894 -22.477789 -2.560770 -2.646266 -1.527821 1.527818 4.489826 -16.881040 -5.905177 -1.994571 -1.151584 1.151571 0.000002 -0.000001 0.000001 -9.108302 -0.517861 2.259799 0.082095 -1.067504 8.795021 0.613239 -2.859906 24.199954 0.111172 -1.240904 10.238396 -0.000000 -0.000001 0.000002 -9.532499 0.000018 -0.000003 0.151343 -1.445667 11.951584 0.432226 -2.417612 20.270016 0.229271 -1.774208 14.724675 0.000001 0.000000 0.000003 -9.103610 -0.043096 -1.865106 0.392240 -2.306524 19.299603 0.427007 -2.403444 20.145897 0.187957 -1.608956 13.325818 0.000001 -0.000000 0.000002 -8.076715 -0.486711 -3.806303 0.642410 -2.923907 24.778499 0.175860 -1.556969 12.887485 0.656355 -2.953880 25.050381 -0.000001 0.000002 0.000001 4.570401 11.014691 -2.160814 0.762242 5.284216 -13.177002 9.602916 -19.679904 -66.200365 -0.000001 -15.707526 -0.000002 -14.207182 14.971059 2.646036 2.466095 -1.576203 2.681697 -2.723770 26.825558 11.962639 8.276560 19.090112 2.824401 2.647888 -1.528766 1.528747 0.556050 14.823952 3.764494 1.998928 -1.154087 1.154085 -0.000002 0.000002 0.000001 9.109299 -0.518007 2.259899 0.031827 0.662679 -5.499797 0.058796 0.899820 -7.477924 0.064796 0.944474 -7.851367 0.000002 0.000000 -0.000000 9.533402 0.000001 -0.000001 0.129743 1.333126 -11.118205 0.142099 1.394582 -11.637996 0.104463 1.197327 -9.973052 -0.000000 0.000000 -0.000002 9.104485 -0.043002 -1.865102 0.339322 2.139157 -17.769029 0.220900 1.733560 -14.524107 0.040080 0.743464 -6.172807 -0.000001 -0.000001 0.000000 8.077803 -0.486906 -3.806303 2.150769 6.276853 -23.897348 0.298880 -2.045921 -17.404224 0.072386 0.997862 -8.298296 0.000000 0.000000 0.000000 -8.207801 -6.751710 -1.599544 -1.740288 -7.394157 -0.158865 11.053699 2.849363 -1.084670 -9.056539 -0.042266 0.299820 -0.169188 -0.000004 0.000000 0.000000 -0.000000 -0.000000 8.207799 -6.751699 -1.599544 0.491188 6.669007 1.127553 8.634308 0.347972 -0.538804 -8.811742 0.109558 -0.895484 -0.854919 0.000001 -0.000000 0.000000 0.000000 0.000000 
